<svg width="31" height="31" viewBox="0 0 31 31" fill="none" xmlns="http://www.w3.org/2000/svg">
<path d="M13.7778 18.9444V11.7972L11.0222 14.5528L8.61111 12.0556L15.5 5.16667L22.3889 12.0556L19.9778 14.5528L17.2222 11.7972V18.9444H13.7778ZM3.44444 31C2.49722 31 1.67917 30.6699 0.990278 30.0097C0.330093 29.3208 0 28.5028 0 27.5556V3.44445C0 2.49722 0.330093 1.69352 0.990278 1.03333C1.67917 0.344445 2.49722 0 3.44444 0H27.5556C28.5028 0 29.3065 0.344445 29.9667 1.03333C30.6556 1.69352 31 2.49722 31 3.44445V27.5556C31 28.5028 30.6556 29.3208 29.9667 30.0097C29.3065 30.6699 28.5028 31 27.5556 31H3.44444ZM3.44444 27.5556H27.5556V22.3889H22.3889C21.5278 23.4796 20.4944 24.3264 19.2889 24.9292C18.112 25.5319 16.8491 25.8333 15.5 25.8333C14.1509 25.8333 12.8736 25.5319 11.6681 24.9292C10.4912 24.3264 9.47222 23.4796 8.61111 22.3889H3.44444V27.5556ZM15.5 22.3889C16.5907 22.3889 17.581 22.0731 18.4708 21.4417C19.3606 20.8102 19.9778 19.9778 20.3222 18.9444H27.5556V3.44445H3.44444V18.9444H10.6778C11.0222 19.9778 11.6394 20.8102 12.5292 21.4417C13.419 22.0731 14.4093 22.3889 15.5 22.3889ZM3.44444 27.5556H8.61111C9.47222 27.5556 10.4912 27.5556 11.6681 27.5556C12.8736 27.5556 14.1509 27.5556 15.5 27.5556C16.8491 27.5556 18.112 27.5556 19.2889 27.5556C20.4944 27.5556 21.5278 27.5556 22.3889 27.5556H27.5556H3.44444Z" fill="white"/>
</svg>
