<svg width="36" height="36" viewBox="0 0 36 36" fill="none" xmlns="http://www.w3.org/2000/svg">
<path d="M16 22V13.7L12.8 16.9L10 14L18 6L26 14L23.2 16.9L20 13.7V22H16ZM4 36C2.9 36 1.95 35.6167 1.15 34.85C0.383334 34.05 0 33.1 0 32V4C0 2.9 0.383334 1.96667 1.15 1.2C1.95 0.400001 2.9 0 4 0H32C33.1 0 34.0333 0.400001 34.8 1.2C35.6 1.96667 36 2.9 36 4V32C36 33.1 35.6 34.05 34.8 34.85C34.0333 35.6167 33.1 36 32 36H4ZM4 32H32V26H26C25 27.2667 23.8 28.25 22.4 28.95C21.0333 29.65 19.5667 30 18 30C16.4333 30 14.95 29.65 13.55 28.95C12.1833 28.25 11 27.2667 10 26H4V32ZM18 26C19.2667 26 20.4167 25.6333 21.45 24.9C22.4833 24.1667 23.2 23.2 23.6 22H32V4H4V22H12.4C12.8 23.2 13.5167 24.1667 14.55 24.9C15.5833 25.6333 16.7333 26 18 26ZM4 32H10C11 32 12.1833 32 13.55 32C14.95 32 16.4333 32 18 32C19.5667 32 21.0333 32 22.4 32C23.8 32 25 32 26 32H32H4Z" fill="white"/>
</svg>
